<?xml version="1.0" encoding="UTF-8" standalone="no"?>
<!-- Created with Inkscape (http://www.inkscape.org/) -->

<svg
   xmlns:dc="http://purl.org/dc/elements/1.1/"
   xmlns:cc="http://creativecommons.org/ns#"
   xmlns:rdf="http://www.w3.org/1999/02/22-rdf-syntax-ns#"
   xmlns:svg="http://www.w3.org/2000/svg"
   xmlns="http://www.w3.org/2000/svg"
   xmlns:sodipodi="http://sodipodi.sourceforge.net/DTD/sodipodi-0.dtd"
   xmlns:inkscape="http://www.inkscape.org/namespaces/inkscape"
   width="148.28889mm"
   height="135.2951mm"
   viewBox="0 0 525.43306 479.39207"
   id="svg2"
   version="1.1"
   inkscape:version="0.91 r13725"
   sodipodi:docname="Journal_Icon.svg">
  <defs
     id="defs4" />
  <sodipodi:namedview
     id="base"
     pagecolor="#ffffff"
     bordercolor="#666666"
     borderopacity="1.0"
     inkscape:pageopacity="0.0"
     inkscape:pageshadow="2"
     inkscape:zoom="0.98994949"
     inkscape:cx="104.78166"
     inkscape:cy="303.2492"
     inkscape:document-units="px"
     inkscape:current-layer="layer1"
     showgrid="false"
     fit-margin-top="5"
     fit-margin-left="5"
     fit-margin-right="5"
     fit-margin-bottom="5"
     inkscape:window-width="1858"
     inkscape:window-height="1057"
     inkscape:window-x="54"
     inkscape:window-y="-8"
     inkscape:window-maximized="1" />
  <metadata
     id="metadata7">
    <rdf:RDF>
      <cc:Work
         rdf:about="">
        <dc:format>image/svg+xml</dc:format>
        <dc:type
           rdf:resource="http://purl.org/dc/dcmitype/StillImage" />
        <dc:title />
      </cc:Work>
    </rdf:RDF>
  </metadata>
  <g
     inkscape:label="Layer 1"
     inkscape:groupmode="layer"
     id="layer1"
     transform="translate(-108.83598,-376.18989)">
    <path
       style="fill:#000000"
       d="m 362.4539,834.17518 c -1.9052,-2.02966 -5.40625,-7.5796 -7.7801,-12.33315 -15.03031,-30.09772 -51.96343,-43.60935 -112.71543,-41.23586 -30.24675,1.18169 -81.28598,8.49416 -105.60117,15.12965 -2.0807,0.56781 -3.9493,-0.20238 -6.37416,-2.62724 l -3.43054,-3.43053 0,-185.89695 0,-185.89694 3.69029,-3.98878 c 3.2809,-3.54625 6.07711,-4.51452 25.20341,-8.72736 37.16967,-8.18715 53.56167,-10.3018 86.00169,-11.09467 58.54189,-1.4308 86.50112,6.15469 109.87766,29.81041 5.90448,5.975 12.92491,14.61866 15.60096,19.20812 l 4.86555,8.34449 5.59642,-9.42016 c 13.99675,-23.56005 35.01582,-37.45186 67.43607,-44.5695 12.50192,-2.74472 17.39438,-3.04144 50.08736,-3.0378 33.51001,0.004 37.79473,0.27992 57.03197,3.67613 33.15597,5.85349 58.81206,12.21793 61.96583,15.37169 2.73907,2.73909 2.74364,3.07165 2.59003,189.08613 -0.0847,102.48823 -0.15151,187.08314 -0.14858,187.98871 0.003,0.90556 -1.41656,2.57809 -3.15438,3.71676 -2.90929,1.90625 -5.00942,1.69842 -26.50308,-2.62254 -76.7098,-15.42134 -135.48592,-14.84682 -168.91292,1.65109 -13.35954,6.59363 -25.42906,18.39882 -31.01509,30.3359 -4.92146,10.51689 -9.09221,14.2527 -15.91208,14.2527 -3.65001,0 -5.83801,-0.96128 -8.39971,-3.6903 z m 26.76287,-37.90345 c 22.96896,-21.04687 41.12097,-27.99069 81.26662,-31.08755 31.33903,-2.41749 81.12576,1.84849 117.35707,10.05575 l 13.75478,3.11578 0,-176.8504 0,-176.8504 -5.03224,-1.32705 c -9.2956,-2.45135 -32.58393,-6.89469 -49.74213,-9.49065 -62.09048,-9.39402 -104.46008,-5.32756 -133.94182,12.85523 -20.72827,12.7841 -29.72353,29.48348 -32.68104,60.67119 -1.45024,15.29314 -1.98534,316.95364 -0.56222,316.95364 0.4404,0 4.75183,-3.62049 9.58098,-8.04554 z"
       id="path4151"
       inkscape:connector-curvature="0" />
    <path
       style="opacity:1;fill:#ffffff;fill-opacity:1;stroke:none;stroke-width:0.40000001;stroke-linecap:round;stroke-linejoin:miter;stroke-miterlimit:10;stroke-dasharray:none;stroke-dashoffset:0;stroke-opacity:0.39215692"
       d="m 380.66797,32.757812 c -32.37924,-0.04098 -57.27761,5.811684 -76.625,17.744141 -20.72827,12.784102 -29.72413,29.484161 -32.68164,60.671877 -1.45024,15.29314 -1.98367,316.95312 -0.56055,316.95312 0.4404,0 4.75093,-3.61987 9.58008,-8.04492 22.96896,-21.04687 41.11997,-27.99103 81.26562,-31.08789 31.33904,-2.41749 81.12611,1.84938 117.35743,10.05664 l 13.75586,3.11524 0,-176.84961 0,-176.851566 -5.03321,-1.326172 c -9.2956,-2.45135 -32.58398,-6.896227 -49.74218,-9.492188 -21.34361,-3.229194 -40.35586,-4.867207 -57.31641,-4.888672 z"
       id="rect4136"
       transform="translate(108.83598,376.18989)"
       inkscape:connector-curvature="0"
       sodipodi:nodetypes="sssssscccccss" />
  </g>
</svg>
